<svg width="153" height="39" viewBox="0 0 153 39" fill="none" xmlns="http://www.w3.org/2000/svg">
<path d="M11.872 33.336C10.3787 33.336 8.988 33.0653 7.7 32.524C6.412 31.9827 5.28267 31.2267 4.312 30.256C3.34133 29.2853 2.58533 28.1467 2.044 26.84C1.50267 25.5333 1.232 24.1053 1.232 22.556C1.232 21.0067 1.49333 19.5787 2.016 18.272C2.53867 16.9467 3.276 15.808 4.228 14.856C5.18 13.8853 6.29067 13.1387 7.56 12.616C8.848 12.0747 10.248 11.804 11.76 11.804C13.272 11.804 14.6253 12.056 15.82 12.56C17.0333 13.064 18.06 13.736 18.9 14.576C19.74 15.416 20.3373 16.3493 20.692 17.376L16.856 19.224C16.5013 18.216 15.876 17.3853 14.98 16.732C14.1027 16.06 13.0293 15.724 11.76 15.724C10.528 15.724 9.44533 16.0133 8.512 16.592C7.57867 17.1707 6.85067 17.9733 6.328 19C5.824 20.008 5.572 21.1933 5.572 22.556C5.572 23.9187 5.84267 25.1133 6.384 26.14C6.92533 27.1667 7.66267 27.9693 8.596 28.548C9.548 29.1267 10.64 29.416 11.872 29.416C12.824 29.416 13.7107 29.2387 14.532 28.884C15.372 28.5107 16.044 27.9787 16.548 27.288C17.0707 26.5973 17.332 25.7667 17.332 24.796V23.06L19.32 24.74H11.76V21.1H21.672V23.312C21.672 25.0107 21.392 26.4947 20.832 27.764C20.272 29.0147 19.516 30.06 18.564 30.9C17.6307 31.7213 16.576 32.3373 15.4 32.748C14.2427 33.14 13.0667 33.336 11.872 33.336ZM28.7759 33.336C27.6746 33.336 26.7226 33.1587 25.9199 32.804C25.1172 32.4493 24.5012 31.9453 24.0719 31.292C23.6426 30.62 23.4279 29.8267 23.4279 28.912C23.4279 28.0533 23.6239 27.2973 24.0159 26.644C24.4079 25.972 25.0052 25.412 25.8079 24.964C26.6292 24.516 27.6466 24.1987 28.8599 24.012L33.5359 23.256V26.336L29.6159 27.036C29.0186 27.148 28.5612 27.344 28.2439 27.624C27.9266 27.8853 27.7679 28.268 27.7679 28.772C27.7679 29.2387 27.9452 29.6027 28.2999 29.864C28.6546 30.1253 29.0932 30.256 29.6159 30.256C30.3066 30.256 30.9132 30.1067 31.4359 29.808C31.9586 29.5093 32.3599 29.108 32.6399 28.604C32.9386 28.0813 33.0879 27.512 33.0879 26.896V22.92C33.0879 22.3413 32.8546 21.856 32.3879 21.464C31.9399 21.072 31.3239 20.876 30.5399 20.876C29.7932 20.876 29.1306 21.0813 28.5519 21.492C27.9919 21.9027 27.5812 22.444 27.3199 23.116L23.9599 21.52C24.2586 20.6613 24.7346 19.924 25.3879 19.308C26.0412 18.692 26.8252 18.216 27.7399 17.88C28.6546 17.544 29.6532 17.376 30.7359 17.376C32.0239 17.376 33.1626 17.6093 34.1519 18.076C35.1412 18.5427 35.9066 19.196 36.4479 20.036C37.0079 20.8573 37.2879 21.8187 37.2879 22.92V33H33.3679V30.536L34.3199 30.368C33.8719 31.04 33.3772 31.6 32.8359 32.048C32.2946 32.4773 31.6879 32.7947 31.0159 33C30.3439 33.224 29.5972 33.336 28.7759 33.336ZM48.9361 33.336C47.8908 33.336 46.9201 33.1493 46.0241 32.776C45.1468 32.384 44.4375 31.8147 43.8961 31.068L44.2881 30.2V33H40.3681V11.804H44.5681V20.624L43.9241 19.784C44.4281 19.0187 45.1095 18.4307 45.9681 18.02C46.8455 17.5907 47.8441 17.376 48.9641 17.376C50.4201 17.376 51.7361 17.7307 52.9121 18.44C54.0881 19.1493 55.0215 20.1107 55.7121 21.324C56.4028 22.5187 56.7481 23.8627 56.7481 25.356C56.7481 26.8307 56.4028 28.1747 55.7121 29.388C55.0401 30.6013 54.1161 31.5627 52.9401 32.272C51.7641 32.9813 50.4295 33.336 48.9361 33.336ZM48.4321 29.556C49.2161 29.556 49.9068 29.3787 50.5041 29.024C51.1015 28.6693 51.5681 28.1747 51.9041 27.54C52.2401 26.9053 52.4081 26.1773 52.4081 25.356C52.4081 24.5347 52.2401 23.816 51.9041 23.2C51.5681 22.5653 51.1015 22.0707 50.5041 21.716C49.9068 21.3427 49.2161 21.156 48.4321 21.156C47.6855 21.156 47.0135 21.3333 46.4161 21.688C45.8375 22.0427 45.3801 22.5373 45.0441 23.172C44.7268 23.8067 44.5681 24.5347 44.5681 25.356C44.5681 26.1773 44.7268 26.9053 45.0441 27.54C45.3801 28.1747 45.8375 28.6693 46.4161 29.024C47.0135 29.3787 47.6855 29.556 48.4321 29.556Z" fill="white" fill-opacity="0.85"/>
<path d="M59.208 33V11.804H63.408V25.384L61.84 24.88L68.588 17.712H73.768L68.224 23.872L73.74 33H68.98L64.36 25.244L66.796 24.628L62.12 29.724L63.408 27.288V33H59.208ZM82.7048 33.336C81.0808 33.336 79.6714 32.9813 78.4768 32.272C77.2821 31.544 76.3581 30.5733 75.7048 29.36C75.0514 28.1467 74.7248 26.8027 74.7248 25.328C74.7248 23.7973 75.0608 22.4347 75.7328 21.24C76.4234 20.0453 77.3474 19.1027 78.5048 18.412C79.6621 17.7213 80.9688 17.376 82.4248 17.376C83.6381 17.376 84.7114 17.572 85.6448 17.964C86.5781 18.3373 87.3621 18.8693 87.9968 19.56C88.6501 20.2507 89.1448 21.0533 89.4808 21.968C89.8168 22.864 89.9848 23.844 89.9848 24.908C89.9848 25.2067 89.9661 25.5053 89.9288 25.804C89.9101 26.084 89.8634 26.3267 89.7888 26.532H78.3368V23.452H87.4088L85.4208 24.908C85.6074 24.1053 85.5981 23.396 85.3928 22.78C85.1874 22.1453 84.8234 21.6507 84.3008 21.296C83.7968 20.9227 83.1714 20.736 82.4248 20.736C81.6968 20.736 81.0714 20.9133 80.5488 21.268C80.0261 21.6227 79.6341 22.1453 79.3728 22.836C79.1114 23.5267 79.0088 24.3667 79.0648 25.356C78.9901 26.2147 79.0928 26.9707 79.3728 27.624C79.6528 28.2773 80.0821 28.7907 80.6608 29.164C81.2394 29.5187 81.9394 29.696 82.7608 29.696C83.5074 29.696 84.1421 29.5467 84.6648 29.248C85.2061 28.9493 85.6261 28.5387 85.9248 28.016L89.2848 29.612C88.9861 30.3587 88.5101 31.012 87.8568 31.572C87.2221 32.132 86.4661 32.5707 85.5888 32.888C84.7114 33.1867 83.7501 33.336 82.7048 33.336ZM92.458 33V17.712H96.378V20.736L96.154 20.064C96.5086 19.1493 97.078 18.4773 97.862 18.048C98.6646 17.6 99.598 17.376 100.662 17.376C101.819 17.376 102.827 17.6187 103.686 18.104C104.563 18.5893 105.245 19.2707 105.73 20.148C106.215 21.0067 106.458 22.0147 106.458 23.172V33H102.258V24.068C102.258 23.4707 102.137 22.9573 101.894 22.528C101.67 22.0987 101.343 21.7627 100.914 21.52C100.503 21.2773 100.018 21.156 99.458 21.156C98.9166 21.156 98.4313 21.2773 98.002 21.52C97.5726 21.7627 97.2366 22.0987 96.994 22.528C96.77 22.9573 96.658 23.4707 96.658 24.068V33H92.458Z" fill="#C81B01"/>
<path d="M69.66 15V7.55H72.09C72.8967 7.55 73.5967 7.71 74.19 8.03C74.7833 8.35 75.2433 8.79 75.57 9.35C75.8967 9.91 76.06 10.55 76.06 11.27C76.06 11.99 75.8967 12.6333 75.57 13.2C75.2433 13.76 74.7833 14.2 74.19 14.52C73.5967 14.84 72.8967 15 72.09 15H69.66ZM71.21 13.65H72.13C72.6167 13.65 73.0367 13.5533 73.39 13.36C73.7433 13.16 74.0167 12.8833 74.21 12.53C74.41 12.17 74.51 11.75 74.51 11.27C74.51 10.7833 74.41 10.3633 74.21 10.01C74.0167 9.65667 73.7433 9.38333 73.39 9.19C73.0367 8.99667 72.6167 8.9 72.13 8.9H71.21V13.65ZM77.0526 15V7.55H82.0626V8.9H78.6026V10.59H81.8626V11.94H78.6026V13.65H82.0626V15H77.0526ZM85.6513 15.12C85.1846 15.12 84.7446 15.0367 84.3313 14.87C83.9246 14.6967 83.5713 14.4533 83.2713 14.14C82.9779 13.8267 82.7579 13.4567 82.6112 13.03L83.8813 12.46C84.0679 12.8667 84.3246 13.1867 84.6513 13.42C84.9846 13.6533 85.3513 13.77 85.7513 13.77C85.9646 13.77 86.1479 13.7367 86.3013 13.67C86.4546 13.6033 86.5746 13.5133 86.6613 13.4C86.7479 13.28 86.7913 13.14 86.7913 12.98C86.7913 12.8067 86.7379 12.66 86.6313 12.54C86.5246 12.4133 86.3579 12.3133 86.1313 12.24L84.6713 11.76C84.0779 11.5667 83.6313 11.2933 83.3313 10.94C83.0313 10.58 82.8813 10.15 82.8813 9.65C82.8813 9.21 82.9879 8.82333 83.2013 8.49C83.4213 8.15667 83.7246 7.89667 84.1113 7.71C84.5046 7.52333 84.9546 7.43 85.4613 7.43C85.9079 7.43 86.3213 7.50667 86.7013 7.66C87.0813 7.81333 87.4079 8.03 87.6813 8.31C87.9613 8.59 88.1713 8.92667 88.3113 9.32L87.0513 9.89C86.9113 9.54333 86.7013 9.27333 86.4213 9.08C86.1413 8.88 85.8213 8.78 85.4613 8.78C85.2546 8.78 85.0713 8.81333 84.9113 8.88C84.7513 8.94667 84.6279 9.04333 84.5413 9.17C84.4546 9.29 84.4113 9.43 84.4113 9.59C84.4113 9.76333 84.4679 9.91667 84.5813 10.05C84.6946 10.1767 84.8646 10.2767 85.0913 10.35L86.5213 10.81C87.1213 11.0033 87.5679 11.2733 87.8613 11.62C88.1613 11.9667 88.3113 12.39 88.3113 12.89C88.3113 13.3233 88.1979 13.71 87.9713 14.05C87.7446 14.3833 87.4313 14.6467 87.0313 14.84C86.6379 15.0267 86.1779 15.12 85.6513 15.12ZM89.4159 15V7.55H90.9659V15H89.4159ZM95.867 15.12C95.3336 15.12 94.837 15.0233 94.377 14.83C93.917 14.6367 93.5136 14.3667 93.167 14.02C92.8203 13.6733 92.5503 13.2667 92.357 12.8C92.1636 12.3333 92.067 11.8233 92.067 11.27C92.067 10.7167 92.1603 10.2067 92.347 9.74C92.5336 9.26667 92.797 8.86 93.137 8.52C93.477 8.17333 93.8736 7.90667 94.327 7.72C94.787 7.52667 95.287 7.43 95.827 7.43C96.367 7.43 96.8503 7.52 97.277 7.7C97.7103 7.88 98.077 8.12 98.377 8.42C98.677 8.72 98.8903 9.05333 99.017 9.42L97.647 10.08C97.5203 9.72 97.297 9.42333 96.977 9.19C96.6636 8.95 96.2803 8.83 95.827 8.83C95.387 8.83 95.0003 8.93333 94.667 9.14C94.3336 9.34667 94.0736 9.63333 93.887 10C93.707 10.36 93.617 10.7833 93.617 11.27C93.617 11.7567 93.7136 12.1833 93.907 12.55C94.1003 12.9167 94.3636 13.2033 94.697 13.41C95.037 13.6167 95.427 13.72 95.867 13.72C96.207 13.72 96.5236 13.6567 96.817 13.53C97.117 13.3967 97.357 13.2067 97.537 12.96C97.7236 12.7133 97.817 12.4167 97.817 12.07V11.45L98.527 12.05H95.827V10.75H99.367V11.54C99.367 12.1467 99.267 12.6767 99.067 13.13C98.867 13.5767 98.597 13.95 98.257 14.25C97.9236 14.5433 97.547 14.7633 97.127 14.91C96.7136 15.05 96.2936 15.12 95.867 15.12ZM100.324 15V7.55H101.514L105.514 12.82L104.874 12.97V7.55H106.424V15H105.224L101.294 9.69L101.874 9.54V15H100.324Z" fill="white" fill-opacity="0.85"/>
<path d="M117.192 28.888V24.66L126.992 20.628V22.084L117.192 18.024V13.796L130.492 19.284V23.428L117.192 28.888ZM135.553 32.64V29H149.553V32.64H135.553Z" fill="#DBDBDB"/>
</svg>
